<?xml version="1.0" encoding="UTF-8" standalone="no"?>
<svg width="14px" height="14px" viewBox="0 0 14 14" version="1.1" xmlns="http://www.w3.org/2000/svg" xmlns:xlink="http://www.w3.org/1999/xlink">
    <!-- Generator: Sketch 3.6.1 (26313) - http://www.bohemiancoding.com/sketch -->
    <title>Slice 1</title>
    <desc>Created with Sketch.</desc>
    <defs></defs>
    <g id="Page-1" stroke="none" stroke-width="1" fill="none" fill-rule="evenodd">
        <path d="M14,7 C14,3.13 10.86,0 7,0 C3.13,0 0,3.13 0,7 C0,10.87 3.13,14 7,14 C10.86,14 14,10.87 14,7 L14,7 Z M7.7,8.48 L6.14,8.48 L6.14,8.05 C6.14,7.67 6.22,7.35 6.38,7.07 C6.54,6.79 6.84,6.5 7.26,6.18 C7.67,5.89 7.94,5.65 8.07,5.47 C8.21,5.29 8.27,5.08 8.27,4.85 C8.27,4.6 8.18,4.41 7.99,4.27 C7.8,4.14 7.54,4.08 7.2,4.08 C6.62,4.08 5.95,4.27 5.2,4.65 L4.56,3.37 C5.43,2.88 6.36,2.63 7.33,2.63 C8.14,2.63 8.78,2.83 9.25,3.21 C9.73,3.6 9.96,4.12 9.96,4.76 C9.96,5.19 9.87,5.56 9.67,5.87 C9.48,6.19 9.1,6.54 8.56,6.93 C8.18,7.21 7.95,7.42 7.85,7.56 C7.75,7.71 7.7,7.9 7.7,8.13 L7.7,8.48 L7.7,8.48 Z M6.23,11.22 C6.05,11.05 5.96,10.8 5.96,10.49 C5.96,10.16 6.04,9.91 6.22,9.74 C6.4,9.57 6.65,9.49 6.99,9.49 C7.31,9.49 7.56,9.58 7.74,9.75 C7.92,9.92 8.01,10.17 8.01,10.49 C8.01,10.79 7.92,11.04 7.74,11.21 C7.56,11.39 7.31,11.48 6.99,11.48 C6.66,11.48 6.41,11.39 6.23,11.22 L6.23,11.22 Z" id="Shape" fill="#A2A2A2"></path>
    </g>
</svg>